<?xml version="1.0" encoding="iso-8859-1"?>
<!-- Generator: Adobe Illustrator 19.0.0, SVG Export Plug-In . SVG Version: 6.00 Build 0)  -->
<svg version="1.1" id="Capa_1" xmlns="http://www.w3.org/2000/svg" xmlns:xlink="http://www.w3.org/1999/xlink" x="0px" y="0px"
	 viewBox="0 0 512.001 512.001" style="enable-background:new 0 0 512.001 512.001;" xml:space="preserve">
<g>
	<g>
		<path d="M416.126,138.291l-42.414-42.415c-5.85-5.852-15.353-5.855-21.207,0l-84.219,84.218
			c-15.957,15.958-36.186,26.18-58.5,29.561c-43.092,6.529-82.159,26.271-112.978,57.089l-83.62,83.62
			c-17.583,17.582-17.584,46.039,0,63.621l84.83,84.829c17.583,17.583,46.039,17.583,63.622,0l83.62-83.62
			c30.819-30.819,50.56-69.886,57.089-112.978c3.38-22.313,13.601-42.542,29.56-58.501c1.872-1.872,81.89-81.89,84.217-84.217
			C421.982,153.641,421.982,144.147,416.126,138.291z M140.432,477.606c-5.862,5.861-15.346,5.861-21.207,0l-84.829-84.829
			c-5.861-5.861-5.86-15.345,0-21.207L45,360.965l106.036,106.036L140.432,477.606z M224.052,393.987l-51.809,51.81L66.207,339.759
			l51.809-51.809c11.303-11.303,23.91-20.851,37.53-28.511l97.018,97.018C244.903,370.077,235.354,382.684,224.052,393.987z
			 M310.702,222.507c-20.517,20.517-33.661,46.527-38.006,75.215c-1.526,10.071-3.905,19.882-7.087,29.364l-80.693-80.693
			c9.481-3.181,19.294-5.56,29.365-7.086c28.689-4.347,54.698-17.489,75.214-38.006l31.2-31.2l21.207,21.207L310.702,222.507z
			 M363.109,170.101l-21.207-21.207l21.207-21.207l21.207,21.207L363.109,170.101z"/>
	</g>
</g>
<g>
	<g>
		<path d="M479.748,32.253c-5.855-5.856-15.351-5.856-21.207,0l-30.248,30.249c-5.856,5.856-5.856,15.351,0,21.207
			c5.855,5.856,15.351,5.856,21.207,0l30.248-30.249C485.605,47.604,485.605,38.11,479.748,32.253z"/>
	</g>
</g>
<g>
	<g>
		<path d="M204.054,350.362l-42.414-42.414c-5.855-5.856-15.351-5.856-21.207,0c-5.856,5.856-5.856,15.351,0,21.207l42.414,42.414
			c5.855,5.856,15.352,5.856,21.207,0C209.911,365.713,209.911,356.219,204.054,350.362z"/>
	</g>
</g>
<g>
	<g>
		<path d="M497.005,119.968h-29.992c-8.282,0-14.996,6.714-14.996,14.996s6.714,14.996,14.996,14.996h29.992
			c8.282,0,14.996-6.714,14.996-14.996S505.287,119.968,497.005,119.968z"/>
	</g>
</g>
<g>
	<g>
		<path d="M377.039,0.001c-8.282,0-14.996,6.714-14.996,14.996v29.992c0,8.282,6.714,14.996,14.996,14.996
			c8.282,0,14.996-6.714,14.996-14.996V14.997C392.035,6.715,385.321,0.001,377.039,0.001z"/>
	</g>
</g>
<g>
	<g>
		<path d="M204.587,0c-14.626,0-27.465,6.118-37.49,17.78c-10.024-11.661-22.864-17.779-37.49-17.779
			c-30.563,0-52.485,26.027-52.485,57.257c0,33.62,25.433,55.911,60.635,86.765c6.168,5.406,12.547,10.997,19.308,17.082
			c2.852,2.566,6.441,3.85,10.032,3.85s7.18-1.283,10.032-3.85c6.762-6.086,13.141-11.677,19.31-17.084
			c34.128-29.913,60.633-52.521,60.633-86.764C257.073,26.031,235.154,0,204.587,0z M176.671,121.467
			c-3.127,2.741-6.309,5.529-9.573,8.411c-3.264-2.881-6.444-5.668-9.571-8.41c-34.047-29.842-50.412-45.036-50.412-64.211
			c0-13.216,7.884-27.264,22.494-27.264c16.478,0,22.765,21.769,23,22.609c1.75,6.564,7.696,11.132,14.49,11.132
			c6.794,0,12.739-4.568,14.49-11.132c0.06-0.226,6.49-22.609,23-22.609c14.61,0,22.494,14.048,22.494,27.265
			C227.081,77.043,208.63,93.456,176.671,121.467z"/>
	</g>
</g>
<g>
	<g>
		<path d="M494.22,344.905c11.663-10.024,17.781-22.864,17.781-37.49c0-30.572-26.038-52.485-57.256-52.485
			c-33.62,0-55.911,25.433-86.764,60.633c-5.406,6.168-10.998,12.547-17.084,19.31c-5.133,5.703-5.133,14.361,0,20.063
			c6.089,6.765,11.683,13.147,17.092,19.319c29.941,34.161,52.524,60.625,86.755,60.625c31.231,0,57.256-21.924,57.256-52.485
			C512,367.768,505.882,354.929,494.22,344.905z M454.745,404.888c-19.812,0-36.26-18.525-64.202-50.402
			c-2.743-3.13-5.534-6.314-8.419-9.581c2.881-3.264,5.669-6.445,8.411-9.572c29.84-34.045,45.035-50.411,64.209-50.411
			c13.217,0,27.264,7.884,27.264,22.494c0,16.478-21.768,22.765-22.609,23.001c-6.564,1.751-11.132,7.696-11.132,14.489
			c0,6.793,4.568,12.739,11.133,14.49c0.227,0.06,22.609,6.49,22.609,23C482.01,397.004,467.962,404.888,454.745,404.888z"/>
	</g>
</g>
<g>
</g>
<g>
</g>
<g>
</g>
<g>
</g>
<g>
</g>
<g>
</g>
<g>
</g>
<g>
</g>
<g>
</g>
<g>
</g>
<g>
</g>
<g>
</g>
<g>
</g>
<g>
</g>
<g>
</g>
</svg>
